<?xml version="1.0" encoding="UTF-8"?>
<svg id="Capa_1" xmlns="http://www.w3.org/2000/svg" version="1.1" viewBox="0 0 795.574 130.723">
  <!-- Generator: Adobe Illustrator 29.8.6, SVG Export Plug-In . SVG Version: 2.1.1 Build 1)  -->
  <defs>
    <style>
      .st0 {
        fill: #fff;
      }

      .st0, .st1 {
        stroke: #000;
        stroke-miterlimit: 10;
      }

      .st2 {
        isolation: isolate;
      }
    </style>
  </defs>
  <g id="wordmark.sombra" class="st2">
    <path d="M202.948,103.639V17.608h12.266v30.749h6.133v-6.133h24.617v6.133h6.133v6.134h6.133v36.882h-6.133v6.133h-6.133v6.133h-24.617v-6.133h-6.133v6.133h-12.266ZM239.789,91.373v-6.133h6.175v-24.617h-6.175v-6.133h-18.441v6.133h-6.133v24.617h6.133v6.133h18.441Z"/>
    <path d="M284.475,103.639v-6.133h-6.133v-6.133h-6.133v-12.309h6.133v-6.133h12.266v-6.133h24.617v-6.175h-6.175v-6.133h-18.441v6.133h-18.399v-6.133h6.133v-6.134h6.133v-6.133h30.75v6.133h6.133v6.134h6.133v49.148h-12.266v-6.133h-6.175v6.133h-24.574ZM309.049,91.373v-6.133h6.175v-12.309h-6.175v6.133h-21.508v12.309h21.508Z"/>
    <path d="M341.47,103.639v-61.415h12.266v6.133h6.133v-6.133h15.375v12.267h-15.375v6.133h-6.133v43.015h-12.266Z"/>
    <path d="M386.159,103.639v-61.415h12.266v6.133h6.133v-6.133h15.375v12.267h-15.375v6.133h-6.133v43.015h-12.266Z"/>
    <path d="M440.048,103.639v-6.133h-6.133v-6.133h-6.133v-36.882h6.133v-6.134h6.133v-6.133h30.75v6.133h6.133v6.134h6.133v36.882h-6.133v6.133h-6.133v6.133h-30.75ZM464.622,91.373v-6.133h6.176v-24.617h-6.176v-6.133h-18.441v6.133h-6.133v24.617h6.133v6.133h18.441Z"/>
    <path d="M509.309,103.639v-6.133h-6.133v-6.133h-6.133v-36.882h6.133v-6.134h6.133v-6.133h30.75v6.133h6.133v6.134h6.133v12.308h-12.266v-6.175h-6.176v-6.133h-18.44v6.133h-6.134v24.617h6.134v6.133h18.44v-6.133h6.176v-6.176h12.266v12.309h-6.133v6.133h-6.133v6.133h-30.75Z"/>
    <path d="M578.57,103.639v-6.133h-6.133v-6.133h-6.134v-36.882h6.134v-6.134h6.133v-6.133h30.749v6.133h6.134v6.134h6.133v36.882h-6.133v6.133h-6.134v6.133h-30.749ZM603.145,91.373v-6.133h6.175v-24.617h-6.175v-6.133h-18.441v6.133h-6.133v24.617h6.133v6.133h18.441Z"/>
    <path d="M647.831,103.639v-6.133h-6.133v-6.133h-6.134v-36.882h6.134v-6.134h6.133v-6.133h24.574v6.133h6.175v-30.749h12.267v86.031h-12.267v-6.133h-6.175v6.133h-24.574ZM672.405,91.373v-6.133h6.175v-24.617h-6.175v-6.133h-18.441v6.133h-6.133v24.617h6.133v6.133h18.441Z"/>
    <path d="M717.092,103.639v-6.133h-6.133v-6.133h-6.134v-36.882h6.134v-6.134h6.133v-6.133h30.749v6.133h6.134v6.134h6.133v21.507h-43.016v9.242h6.133v6.133h18.441v-6.133h18.441v6.133h-6.133v6.133h-6.134v6.133h-30.749ZM747.841,66.799v-6.175h-6.175v-6.133h-18.441v6.133h-6.133v6.175h30.749Z"/>
  </g>
  <g id="isotype.sombra">
    <polygon class="st1" points="37.294 50.479 54.167 50.479 54.167 45.026 31.842 45.026 31.842 107.877 54.167 107.877 54.167 102.425 37.294 102.425 37.294 50.479"/>
    <path class="st1" d="M136.792,75.115c-5.59,9.937-12.203,15.41-18.623,15.41-2.094,0-4.209-.593-6.302-1.722l19.821-43.418-4.96-2.264-19.354,42.394c-2.738-2.554-5.381-6.049-7.828-10.4-3.492-6.208-7.062-10.386-10.474-13.157l8.055-17.645-4.96-2.264-7.716,16.903c-3.077-1.527-5.908-2.025-8.28-2.025-5.996,0-14.919,3.156-23.375,18.189l4.752,2.673c5.59-9.937,12.203-15.41,18.623-15.41,1.995,0,4.008.53,6.004,1.557l-19.407,42.511,4.96,2.265,18.971-41.557c2.832,2.574,5.568,6.143,8.095,10.634,3.399,6.043,6.873,10.164,10.203,12.935l-7.668,16.796,4.96,2.265,7.296-15.982c3.195,1.648,6.134,2.176,8.584,2.176,5.996,0,14.919-3.155,23.375-18.189l-4.752-2.673v-.002Z"/>
    <polygon class="st1" points="141.17 45.19 141.17 50.643 158.043 50.643 158.043 102.588 141.17 102.588 141.17 108.041 163.496 108.041 163.496 45.19 141.17 45.19"/>
  </g>
  <g id="wordmark">
    <g class="st2">
      <g class="st2">
        <path class="st0" d="M202.948,97.087V11.055h12.266v30.749h6.133v-6.133h24.617v6.133h6.133v6.134h6.133v36.882h-6.133v6.134h-6.133v6.133h-24.617v-6.133h-6.133v6.133h-12.266ZM239.789,84.82v-6.133h6.175v-24.617h-6.175v-6.133h-18.441v6.133h-6.133v24.617h6.133v6.133h18.441Z"/>
        <path class="st0" d="M284.475,97.087v-6.133h-6.133v-6.134h-6.133v-12.308h6.133v-6.133h12.266v-6.134h24.617v-6.175h-6.175v-6.133h-18.441v6.133h-18.399v-6.133h6.133v-6.134h6.133v-6.133h30.75v6.133h6.133v6.134h6.133v49.149h-12.266v-6.133h-6.175v6.133h-24.574ZM309.049,84.82v-6.133h6.175v-12.308h-6.175v6.133h-21.508v12.308h21.508Z"/>
        <path class="st0" d="M341.47,97.087v-61.416h12.266v6.133h6.133v-6.133h15.375v12.267h-15.375v6.133h-6.133v43.016h-12.266Z"/>
        <path class="st0" d="M386.159,97.087v-61.416h12.266v6.133h6.133v-6.133h15.375v12.267h-15.375v6.133h-6.133v43.016h-12.266Z"/>
        <path class="st0" d="M440.048,97.087v-6.133h-6.133v-6.134h-6.133v-36.882h6.133v-6.134h6.133v-6.133h30.75v6.133h6.133v6.134h6.133v36.882h-6.133v6.134h-6.133v6.133h-30.75ZM464.622,84.82v-6.133h6.176v-24.617h-6.176v-6.133h-18.441v6.133h-6.133v24.617h6.133v6.133h18.441Z"/>
        <path class="st0" d="M509.309,97.087v-6.133h-6.133v-6.134h-6.133v-36.882h6.133v-6.134h6.133v-6.133h30.75v6.133h6.133v6.134h6.133v12.308h-12.266v-6.175h-6.176v-6.133h-18.44v6.133h-6.134v24.617h6.134v6.133h18.44v-6.133h6.176v-6.175h12.266v12.308h-6.133v6.134h-6.133v6.133h-30.75Z"/>
        <path class="st0" d="M578.57,97.087v-6.133h-6.133v-6.134h-6.134v-36.882h6.134v-6.134h6.133v-6.133h30.749v6.133h6.134v6.134h6.133v36.882h-6.133v6.134h-6.134v6.133h-30.749ZM603.145,84.82v-6.133h6.175v-24.617h-6.175v-6.133h-18.441v6.133h-6.133v24.617h6.133v6.133h18.441Z"/>
        <path class="st0" d="M647.831,97.087v-6.133h-6.133v-6.134h-6.134v-36.882h6.134v-6.134h6.133v-6.133h24.574v6.133h6.175V11.055h12.267v86.032h-12.267v-6.133h-6.175v6.133h-24.574ZM672.405,84.82v-6.133h6.175v-24.617h-6.175v-6.133h-18.441v6.133h-6.133v24.617h6.133v6.133h18.441Z"/>
        <path class="st0" d="M717.092,97.087v-6.133h-6.133v-6.134h-6.134v-36.882h6.134v-6.134h6.133v-6.133h30.749v6.133h6.134v6.134h6.133v21.508h-43.016v9.241h6.133v6.133h18.441v-6.133h18.441v6.133h-6.133v6.134h-6.134v6.133h-30.749ZM747.841,60.246v-6.175h-6.175v-6.133h-18.441v6.133h-6.133v6.175h30.749Z"/>
      </g>
    </g>
  </g>
  <g id="isotype">
    <path class="st0" d="M54.167,101.822h-22.325c-1.381,0-2.5-1.119-2.5-2.5v-62.851c0-1.381,1.119-2.5,2.5-2.5h22.325c1.381,0,2.5,1.119,2.5,2.5v5.453c0,1.381-1.119,2.5-2.5,2.5h-14.373v46.946h14.373c1.381,0,2.5,1.119,2.5,2.5v5.451c0,1.381-1.119,2.5-2.5,2.5ZM34.342,96.822h17.325v-.451h-14.373c-1.381,0-2.5-1.119-2.5-2.5v-51.946c0-1.381,1.119-2.5,2.5-2.5h14.373v-.453h-17.325v57.851Z"/>
    <path class="st0" d="M102.289,103.73c-.355,0-.709-.075-1.039-.226l-4.96-2.265c-1.256-.573-1.809-2.057-1.236-3.312l6.899-15.111c-3.343-3.125-6.479-7.271-9.339-12.356-1.639-2.913-3.367-5.422-5.159-7.496l-17.453,38.231c-.275.604-.779,1.072-1.4,1.304-.622.232-1.31.208-1.913-.067l-4.96-2.265c-1.256-.573-1.809-2.057-1.236-3.312l18.325-40.141c-.896-.259-1.781-.389-2.647-.389-5.396,0-11.39,5.152-16.444,14.135-.677,1.204-2.2,1.628-3.404.953l-4.752-2.673c-.578-.325-1.003-.866-1.182-1.505-.179-.639-.097-1.322.229-1.899,9.049-16.087,18.891-19.463,25.554-19.463,2.361,0,4.713.425,7.02,1.266l6.702-14.682c.275-.603.779-1.072,1.4-1.304.622-.232,1.31-.207,1.912.068l4.96,2.264c.603.275,1.072.779,1.304,1.4s.208,1.309-.068,1.912l-7.277,15.941c3.443,3.152,6.667,7.38,9.601,12.597,1.566,2.786,3.211,5.201,4.914,7.218l17.815-39.024c.574-1.255,2.058-1.808,3.312-1.236l4.96,2.264c.603.275,1.072.779,1.304,1.4s.208,1.309-.068,1.912l-18.766,41.108c1.011.328,2.005.494,2.973.494,5.397,0,11.391-5.152,16.444-14.136.325-.578.866-1.003,1.505-1.182.639-.177,1.322-.096,1.9.229l4.752,2.675c1.203.677,1.629,2.201.953,3.404-9.048,16.087-18.891,19.464-25.554,19.464-2.473,0-4.933-.464-7.339-1.383l-6.266,13.727c-.275.604-.779,1.072-1.4,1.304-.282.105-.579.158-.874.158ZM100.642,97.729l.412.188,6.257-13.707c.284-.622.811-1.101,1.457-1.324.646-.222,1.356-.172,1.964.141,2.442,1.259,4.944,1.897,7.438,1.897,5.043,0,12.481-2.628,19.93-14.759l-.398-.224c-5.8,9.393-12.677,14.528-19.532,14.528-2.482,0-5.002-.68-7.489-2.021-1.158-.625-1.634-2.041-1.087-3.238l18.783-41.144-.411-.188-18.316,40.12c-.334.731-1,1.258-1.788,1.414-.788.156-1.604-.076-2.192-.624-2.952-2.754-5.745-6.456-8.302-11.003-3.04-5.405-6.361-9.591-9.871-12.442-.884-.718-1.171-1.942-.698-2.979l7.017-15.371-.411-.188-6.678,14.629c-.281.616-.8,1.092-1.438,1.318-.638.227-1.341.185-1.947-.117-2.359-1.171-4.771-1.765-7.169-1.765-5.043,0-12.481,2.628-19.93,14.759l.397.223c5.801-9.392,12.679-14.53,19.533-14.53,2.379,0,4.784.617,7.148,1.834,1.187.611,1.685,2.046,1.13,3.261l-18.369,40.236.412.188,17.933-39.282c.332-.726.99-1.25,1.772-1.411.784-.161,1.594.063,2.184.6,3.066,2.788,5.957,6.575,8.592,11.258,2.969,5.277,6.207,9.396,9.624,12.239.867.722,1.144,1.935.675,2.96l-6.63,14.521Z"/>
    <path class="st0" d="M163.496,101.986h-22.326c-1.381,0-2.5-1.119-2.5-2.5v-5.452c0-1.381,1.119-2.5,2.5-2.5h14.373v-46.945h-14.373c-1.381,0-2.5-1.119-2.5-2.5v-5.453c0-1.381,1.119-2.5,2.5-2.5h22.326c1.381,0,2.5,1.119,2.5,2.5v62.851c0,1.381-1.119,2.5-2.5,2.5ZM143.67,96.986h17.326v-57.851h-17.326v.453h14.373c1.381,0,2.5,1.119,2.5,2.5v51.945c0,1.381-1.119,2.5-2.5,2.5h-14.373v.452Z"/>
  </g>
</svg>