<?xml version="1.0" encoding="UTF-8"?>
<svg id="Capa_1" xmlns="http://www.w3.org/2000/svg" version="1.1" viewBox="0 0 480 480">
  <!-- Generator: Adobe Illustrator 29.8.6, SVG Export Plug-In . SVG Version: 2.1.1 Build 1)  -->
  <defs>
    <style>
      .st0 {
        fill: #4f46e5;
      }
    </style>
  </defs>
  <path class="st0" d="M450,210c-31.48-.006-56.995-25.53-56.99-57.01.003-15.111,6.006-29.603,16.69-40.29,12.122-11.295,12.792-30.278,1.497-42.4-11.295-12.122-30.278-12.792-42.4-1.497-.516.481-1.016.98-1.497,1.497-22.263,22.257-58.353,22.253-80.61-.01-10.684-10.687-16.687-25.179-16.69-40.29,0-16.569-13.431-30-30-30s-30,13.431-30,30c-.006,31.48-25.53,56.995-57.01,56.99-15.111-.003-29.603-6.006-40.29-16.69-11.295-12.122-30.278-12.792-42.4-1.497-12.122,11.295-12.792,30.278-1.497,42.4.481.516.98,1.016,1.497,1.497,22.257,22.263,22.253,58.353-.01,80.61-10.687,10.684-25.179,16.687-40.29,16.69-16.569,0-30,13.431-30,30s13.431,30,30,30c31.48.006,56.995,25.53,56.99,57.01-.003,15.111-6.006,29.603-16.69,40.29-12.122,11.295-12.792,30.278-1.497,42.4,11.295,12.122,30.278,12.792,42.4,1.497.516-.481,1.016-.98,1.497-1.497,22.263-22.257,58.353-22.253,80.61.01,10.684,10.687,16.687,25.178,16.69,40.29,0,16.569,13.431,30,30,30s30-13.431,30-30c.006-31.48,25.53-56.995,57.01-56.99,15.111.003,29.603,6.006,40.29,16.69,11.295,12.122,30.278,12.792,42.4,1.497,12.122-11.295,12.792-30.278,1.497-42.4-.481-.516-.98-1.016-1.497-1.497-22.257-22.263-22.253-58.353.01-80.61,10.687-10.684,25.179-16.687,40.29-16.69,16.569,0,30-13.431,30-30s-13.431-30-30-30ZM240,300c-33.137,0-60-26.863-60-60s26.863-60,60-60,60,26.863,60,60-26.863,60-60,60Z"/>
</svg>